<svg width="24" height="24" viewBox="0 0 24 24" fill="none" xmlns="http://www.w3.org/2000/svg">
<path d="M7.77204 2.43881L8.84904 2.09481C9.85704 1.77281 10.935 2.29381 11.367 3.31181L12.227 5.33981C12.602 6.22281 12.394 7.26181 11.713 7.90781L9.82004 9.70581C9.93671 10.7818 10.298 11.8408 10.904 12.8828C11.4803 13.8907 12.2525 14.773 13.175 15.4778L15.451 14.7178C16.313 14.4308 17.252 14.7618 17.781 15.5388L19.013 17.3488C19.629 18.2528 19.518 19.4988 18.755 20.2648L17.937 21.0858C17.123 21.9028 15.961 22.1998 14.885 21.8638C12.3464 21.0718 10.012 18.7208 7.88204 14.8108C5.74937 10.8941 4.99671 7.57148 5.62404 4.84281C5.88804 3.69481 6.70604 2.77981 7.77404 2.43881" fill="white"/>
</svg>
