<svg width="67" height="67" viewBox="0 0 67 67" fill="none" xmlns="http://www.w3.org/2000/svg">
<path d="M54.7503 15.1158C53.5224 13.8639 52.0646 12.8708 50.4601 12.1933C48.8555 11.5157 47.1357 11.167 45.3989 11.167C43.6621 11.167 41.9423 11.5157 40.3377 12.1933C38.7332 12.8708 37.2754 13.8639 36.0475 15.1158L33.4994 17.7128L30.9512 15.1158C28.471 12.5883 25.1073 11.1683 21.5998 11.1683C18.0924 11.1683 14.7286 12.5883 12.2485 15.1158C9.76832 17.6434 8.375 21.0715 8.375 24.6461C8.375 28.2206 9.76832 31.6487 12.2485 34.1763L14.7966 36.7732L33.4994 55.8337L52.2021 36.7732L54.7503 34.1763C55.9787 32.925 56.9531 31.4393 57.618 29.804C58.2828 28.1688 58.625 26.4161 58.625 24.6461C58.625 22.876 58.2828 21.1233 57.618 19.4881C56.9531 17.8529 55.9787 16.3672 54.7503 15.1158V15.1158Z" stroke="white" stroke-width="5.5" stroke-linecap="round" stroke-linejoin="round"/>
</svg>
