<svg width="18" height="18" viewBox="0 0 18 18" fill="none" xmlns="http://www.w3.org/2000/svg">
<path d="M0.6 3C0.24 3 0 3.24 0 3.6V15C0 15.36 0.24 15.6 0.6 15.6C0.96 15.6 1.2 15.36 1.2 15V13.2H16.8V15C16.8 15.36 17.04 15.6 17.4 15.6C17.76 15.6 18 15.36 18 15V12.6C18 12.24 17.76 12 17.4 12H1.2V3.6C1.2 3.24 0.96 3 0.6 3ZM4.2 3.6C3.24 3.6 2.4 4.44 2.4 5.4C2.4 6.36 3.24 7.2 4.2 7.2C5.16 7.2 6 6.36 6 5.4C6 4.44 5.16 3.6 4.2 3.6ZM8.4 4.8C6.6 4.8 6.6 6.6 6.6 6.6V8.4H3C2.64 8.4 2.4 8.64 2.4 9V10.2C2.4 10.56 2.64 10.8 3 10.8H18V7.8C18 4.8 15 4.8 15 4.8H8.4Z" fill="white"/>
</svg>
