<svg width="37" height="37" viewBox="0 0 37 37" fill="none" xmlns="http://www.w3.org/2000/svg">
<path d="M6.16602 12.333H30.8327" stroke="#F56770" stroke-width="2.5" stroke-linecap="round" stroke-linejoin="round"/>
<path d="M24.666 4.625V7.70833" stroke="#F56770" stroke-width="2.5" stroke-linecap="round" stroke-linejoin="round"/>
<path d="M12.334 4.625V7.70833" stroke="#F56770" stroke-width="2.5" stroke-linecap="round" stroke-linejoin="round"/>
<path d="M4.625 9.25033C4.625 7.54745 6.00546 6.16699 7.70833 6.16699H29.2917C30.9945 6.16699 32.375 7.54745 32.375 9.25033V29.292C32.375 30.9949 30.9945 32.3753 29.2917 32.3753H7.70833C6.00546 32.3753 4.625 30.9949 4.625 29.292V9.25033Z" stroke="#F56770" stroke-width="2.5" stroke-linecap="round" stroke-linejoin="round"/>
<path d="M24.666 25.4375H24.668V25.4403H24.666V25.4375Z" stroke="#F56770" stroke-width="2.5" stroke-linecap="round" stroke-linejoin="round"/>
<path d="M18.5 25.4375H18.502V25.4403H18.5V25.4375Z" stroke="#F56770" stroke-width="2.5" stroke-linecap="round" stroke-linejoin="round"/>
<path d="M12.334 25.4375H12.336V25.4403H12.334V25.4375Z" stroke="#F56770" stroke-width="2.5" stroke-linecap="round" stroke-linejoin="round"/>
<path d="M24.666 19.2705H24.668V19.2733H24.666V19.2705Z" stroke="#F56770" stroke-width="2.5" stroke-linecap="round" stroke-linejoin="round"/>
<path d="M18.5 19.2705H18.502V19.2733H18.5V19.2705Z" stroke="#F56770" stroke-width="2.5" stroke-linecap="round" stroke-linejoin="round"/>
<path d="M12.334 19.2705H12.336V19.2733H12.334V19.2705Z" stroke="#F56770" stroke-width="2.5" stroke-linecap="round" stroke-linejoin="round"/>
</svg>
