<svg width="100" height="100" viewBox="0 0 100 100" fill="none" xmlns="http://www.w3.org/2000/svg">
<g filter="url(#filter0_g_304_1880)">
<path d="M3.57386 22.7841V18.7273H22.6875V22.7841H15.5625V42H10.6989V22.7841H3.57386ZM23.9318 42V24.5455H28.625V27.5909H28.8068C29.125 26.5076 29.6591 25.6894 30.4091 25.1364C31.1591 24.5758 32.0227 24.2955 33 24.2955C33.2424 24.2955 33.5038 24.3106 33.7841 24.3409C34.0644 24.3712 34.3106 24.4129 34.5227 24.4659V28.7614C34.2955 28.6932 33.9811 28.6326 33.5795 28.5795C33.178 28.5265 32.8106 28.5 32.4773 28.5C31.7652 28.5 31.1288 28.6553 30.5682 28.9659C30.0152 29.2689 29.5758 29.6932 29.25 30.2386C28.9318 30.7841 28.7727 31.4129 28.7727 32.125V42H23.9318ZM41.5028 42.3295C40.3892 42.3295 39.3968 42.1364 38.5256 41.75C37.6544 41.3561 36.965 40.7765 36.4574 40.0114C35.9574 39.2386 35.7074 38.2765 35.7074 37.125C35.7074 36.1553 35.8854 35.3409 36.2415 34.6818C36.5975 34.0227 37.0824 33.4924 37.696 33.0909C38.3097 32.6894 39.0066 32.3864 39.7869 32.1818C40.5748 31.9773 41.4006 31.8333 42.2642 31.75C43.2794 31.6439 44.0975 31.5455 44.7188 31.4545C45.34 31.3561 45.7907 31.2121 46.071 31.0227C46.3513 30.8333 46.4915 30.553 46.4915 30.1818V30.1136C46.4915 29.3939 46.2642 28.8371 45.8097 28.4432C45.3627 28.0492 44.7263 27.8523 43.9006 27.8523C43.0294 27.8523 42.3362 28.0455 41.821 28.4318C41.3059 28.8106 40.965 29.2879 40.7983 29.8636L36.321 29.5C36.5483 28.4394 36.9953 27.5227 37.6619 26.75C38.3286 25.9697 39.1884 25.3712 40.2415 24.9545C41.3021 24.5303 42.5294 24.3182 43.9233 24.3182C44.893 24.3182 45.821 24.4318 46.7074 24.6591C47.6013 24.8864 48.393 25.2386 49.0824 25.7159C49.7794 26.1932 50.3286 26.8068 50.7301 27.5568C51.1316 28.2992 51.3324 29.1894 51.3324 30.2273V42H46.7415V39.5795H46.6051C46.3248 40.125 45.9498 40.6061 45.4801 41.0227C45.0104 41.4318 44.446 41.7538 43.7869 41.9886C43.1278 42.2159 42.3665 42.3295 41.5028 42.3295ZM42.8892 38.9886C43.6013 38.9886 44.2301 38.8485 44.7756 38.5682C45.321 38.2803 45.7491 37.8939 46.0597 37.4091C46.3703 36.9242 46.5256 36.375 46.5256 35.7614V33.9091C46.3741 34.0076 46.1657 34.0985 45.9006 34.1818C45.643 34.2576 45.3513 34.3295 45.0256 34.3977C44.6998 34.4583 44.3741 34.5152 44.0483 34.5682C43.7225 34.6136 43.4271 34.6553 43.1619 34.6932C42.5938 34.7765 42.0975 34.9091 41.6733 35.0909C41.2491 35.2727 40.9195 35.5189 40.6847 35.8295C40.4498 36.1326 40.3324 36.5114 40.3324 36.9659C40.3324 37.625 40.571 38.1288 41.0483 38.4773C41.5331 38.8182 42.1468 38.9886 42.8892 38.9886ZM70.7358 24.5455L64.6335 42H59.179L53.0767 24.5455H58.1903L61.8153 37.0341H61.9972L65.6108 24.5455H70.7358ZM80.6051 42.3409C78.8097 42.3409 77.2642 41.9773 75.9688 41.25C74.6809 40.5152 73.6884 39.4773 72.9915 38.1364C72.2945 36.7879 71.946 35.1932 71.946 33.3523C71.946 31.5568 72.2945 29.9811 72.9915 28.625C73.6884 27.2689 74.6695 26.2121 75.9347 25.4545C77.2074 24.697 78.6998 24.3182 80.4119 24.3182C81.5634 24.3182 82.6354 24.5038 83.6278 24.875C84.6278 25.2386 85.4991 25.7879 86.2415 26.5227C86.9915 27.2576 87.5748 28.1818 87.9915 29.2955C88.4081 30.4015 88.6165 31.697 88.6165 33.1818V34.5114H73.8778V31.5114H84.0597C84.0597 30.8144 83.9081 30.197 83.6051 29.6591C83.3021 29.1212 82.8816 28.7008 82.3438 28.3977C81.8134 28.0871 81.196 27.9318 80.4915 27.9318C79.7566 27.9318 79.1051 28.1023 78.5369 28.4432C77.9763 28.7765 77.5369 29.2273 77.2188 29.7955C76.9006 30.3561 76.7377 30.9811 76.7301 31.6705V34.5227C76.7301 35.3864 76.8892 36.1326 77.2074 36.7614C77.5331 37.3902 77.9915 37.875 78.5824 38.2159C79.1733 38.5568 79.8741 38.7273 80.6847 38.7273C81.2225 38.7273 81.715 38.6515 82.1619 38.5C82.6089 38.3485 82.9915 38.1212 83.3097 37.8182C83.6278 37.5152 83.8703 37.1439 84.0369 36.7045L88.5142 37C88.2869 38.0758 87.821 39.0152 87.1165 39.8182C86.4195 40.6136 85.518 41.2348 84.4119 41.6818C83.3134 42.1212 82.0445 42.3409 80.6051 42.3409ZM96.6165 18.7273V42H91.7756V18.7273H96.6165ZM23.6477 64.4205C23.5568 63.5038 23.1667 62.7917 22.4773 62.2841C21.7879 61.7765 20.8523 61.5227 19.6705 61.5227C18.8674 61.5227 18.1894 61.6364 17.6364 61.8636C17.0833 62.0833 16.6591 62.3902 16.3636 62.7841C16.0758 63.178 15.9318 63.625 15.9318 64.125C15.9167 64.5417 16.0038 64.9053 16.1932 65.2159C16.3902 65.5265 16.6591 65.7955 17 66.0227C17.3409 66.2424 17.7348 66.4356 18.1818 66.6023C18.6288 66.7614 19.1061 66.8977 19.6136 67.0114L21.7045 67.5114C22.7197 67.7386 23.6515 68.0417 24.5 68.4205C25.3485 68.7992 26.0833 69.2652 26.7045 69.8182C27.3258 70.3712 27.8068 71.0227 28.1477 71.7727C28.4962 72.5227 28.6742 73.3826 28.6818 74.3523C28.6742 75.7765 28.3106 77.0114 27.5909 78.0568C26.8788 79.0947 25.8485 79.9015 24.5 80.4773C23.1591 81.0455 21.5417 81.3295 19.6477 81.3295C17.7689 81.3295 16.1326 81.0417 14.7386 80.4659C13.3523 79.8902 12.2689 79.0379 11.4886 77.9091C10.7159 76.7727 10.3106 75.3674 10.2727 73.6932H15.0341C15.0871 74.4735 15.3106 75.125 15.7045 75.6477C16.1061 76.1629 16.6402 76.553 17.3068 76.8182C17.9811 77.0758 18.7424 77.2045 19.5909 77.2045C20.4242 77.2045 21.1477 77.0833 21.7614 76.8409C22.3826 76.5985 22.8636 76.2614 23.2045 75.8295C23.5455 75.3977 23.7159 74.9015 23.7159 74.3409C23.7159 73.8182 23.5606 73.3788 23.25 73.0227C22.947 72.6667 22.5 72.3636 21.9091 72.1136C21.3258 71.8636 20.6098 71.6364 19.7614 71.4318L17.2273 70.7955C15.2652 70.3182 13.7159 69.572 12.5795 68.5568C11.4432 67.5417 10.8788 66.1742 10.8864 64.4545C10.8788 63.0455 11.2538 61.8144 12.0114 60.7614C12.7765 59.7083 13.8258 58.8864 15.1591 58.2955C16.4924 57.7045 18.0076 57.4091 19.7045 57.4091C21.4318 57.4091 22.9394 57.7045 24.2273 58.2955C25.5227 58.8864 26.5303 59.7083 27.25 60.7614C27.9697 61.8144 28.3409 63.0341 28.3636 64.4205H23.6477ZM36.7415 70.9091V81H31.9006V57.7273H36.6051V66.625H36.8097C37.2036 65.5947 37.84 64.7879 38.7188 64.2045C39.5975 63.6136 40.6998 63.3182 42.0256 63.3182C43.2377 63.3182 44.2945 63.5833 45.196 64.1136C46.1051 64.6364 46.8097 65.3902 47.3097 66.375C47.8172 67.3523 48.0672 68.5227 48.0597 69.8864V81H43.2188V70.75C43.2263 69.6742 42.9536 68.8371 42.4006 68.2386C41.8551 67.6402 41.09 67.3409 40.1051 67.3409C39.446 67.3409 38.8627 67.4811 38.3551 67.7614C37.8551 68.0417 37.4612 68.4508 37.1733 68.9886C36.893 69.5189 36.7491 70.1591 36.7415 70.9091ZM90.7784 63.5455V67.1818H80.267V63.5455H90.7784ZM82.6534 59.3636H87.4943V75.6364C87.4943 76.0833 87.5625 76.4318 87.6989 76.6818C87.8352 76.9242 88.0246 77.0947 88.267 77.1932C88.517 77.2917 88.8049 77.3409 89.1307 77.3409C89.358 77.3409 89.5852 77.322 89.8125 77.2841C90.0398 77.2386 90.214 77.2045 90.3352 77.1818L91.0966 80.7841C90.8542 80.8598 90.5133 80.947 90.0739 81.0455C89.6345 81.1515 89.1004 81.2159 88.4716 81.2386C87.3049 81.2841 86.2822 81.1288 85.4034 80.7727C84.5322 80.4167 83.8542 79.8636 83.3693 79.1136C82.8845 78.3636 82.6458 77.4167 82.6534 76.2727V59.3636Z" fill="white"/>
</g>
<path d="M58.7506 69.8747C56.6673 69.8747 55.6256 71.2738 55.6256 72.9997C55.6256 74.7256 57.0247 76.1247 58.7506 76.1247C59.8934 76.1247 60.8011 75.3412 61.6671 74.2039C62.4199 75.3978 63.1981 76.6536 64.0475 77.8693C62.7024 79.2711 61.0326 80.2913 58.7506 80.2913C54.7235 80.2913 51.459 77.0268 51.459 72.9997C51.459 68.9725 54.584 65.708 58.7506 65.708C66.0423 65.708 67.084 76.1247 71.2506 76.1247C73.334 76.1247 74.3756 74.7255 74.3756 72.9997C74.3756 71.2737 72.9765 69.8747 71.2506 69.8747C70.1079 69.8747 69.2002 70.6581 68.3342 71.7954C67.5814 70.6015 66.8032 69.3457 65.9538 68.13C67.2989 66.7282 68.9687 65.708 71.2506 65.708C75.2777 65.708 78.5423 68.9725 78.5423 72.9997C78.5423 77.0268 75.4173 80.2913 71.2506 80.2913C63.959 80.2913 62.9173 69.8747 58.7506 69.8747Z" fill="#F56770"/>
<defs>
<filter id="filter0_g_304_1880" x="2.57422" y="17.7275" width="95.043" height="64.6016" filterUnits="userSpaceOnUse" color-interpolation-filters="sRGB">
<feFlood flood-opacity="0" result="BackgroundImageFix"/>
<feBlend mode="normal" in="SourceGraphic" in2="BackgroundImageFix" result="shape"/>
<feTurbulence type="fractalNoise" baseFrequency="2 2" numOctaves="3" seed="2444" />
<feDisplacementMap in="shape" scale="2" xChannelSelector="R" yChannelSelector="G" result="displacedImage" width="100%" height="100%" />
<feMerge result="effect1_texture_304_1880">
<feMergeNode in="displacedImage"/>
</feMerge>
</filter>
</defs>
</svg>
