<svg width="31" height="31" viewBox="0 0 31 31" fill="none" xmlns="http://www.w3.org/2000/svg">
<path d="M16.9296 5.35765C17.3059 4.984 17.8153 4.77511 18.3456 4.77692C18.8759 4.77874 19.3838 4.99111 19.7576 5.36733L28.7267 14.3981C29.1004 14.7744 29.3093 15.2837 29.3075 15.8141C29.3057 16.3444 29.0933 16.8523 28.7171 17.2261L19.6863 26.1952C19.3079 26.5582 18.802 26.7581 18.2776 26.7517C17.7532 26.7454 17.2523 26.5333 16.8828 26.1613C16.5132 25.7892 16.3046 25.2868 16.3019 24.7624C16.2991 24.238 16.5024 23.7335 16.868 23.3575L22.3011 17.7901L3.30121 17.7251C2.77078 17.7233 2.26279 17.5108 1.88901 17.1345C1.51522 16.7581 1.30625 16.2487 1.30806 15.7183C1.30988 15.1878 1.52233 14.6798 1.89869 14.3061C2.27504 13.9323 2.78447 13.7233 3.31489 13.7251L22.3148 13.7901L16.9199 8.18564C16.5463 7.8093 16.3374 7.29997 16.3392 6.76964C16.341 6.23932 16.5534 5.73142 16.9296 5.35765Z" fill="black"/>
</svg>
