<svg width="18" height="18" viewBox="0 0 18 18" fill="none" xmlns="http://www.w3.org/2000/svg">
<path d="M4.5 16.5V9.6375C3.825 9.4625 3.28125 9.10625 2.86875 8.56875C2.45625 8.03125 2.25 7.425 2.25 6.75V1.5H3.75V6H4.5V1.5H6V6H6.75V1.5H8.25V6.75C8.25 7.425 8.04375 8.03125 7.63125 8.56875C7.21875 9.10625 6.675 9.4625 6 9.6375V16.5H4.5ZM12 16.5V9.35625C11.325 9.13125 10.7812 8.6595 10.3687 7.941C9.95625 7.2225 9.75 6.40675 9.75 5.49375C9.75 4.38125 10.0438 3.4375 10.6313 2.6625C11.2188 1.8875 11.925 1.5 12.75 1.5C13.575 1.5 14.2813 1.8905 14.8688 2.6715C15.4563 3.4525 15.75 4.3995 15.75 5.5125C15.75 6.425 15.5437 7.2375 15.1312 7.95C14.7187 8.6625 14.175 9.13125 13.5 9.35625V16.5H12Z" fill="white"/>
</svg>
