<svg width="18" height="17" viewBox="0 0 18 17" fill="none" xmlns="http://www.w3.org/2000/svg">
<path fill-rule="evenodd" clip-rule="evenodd" d="M12.5937 0C12.9573 0 13.2714 0.2142 13.4172 0.5238L13.455 0.6192C13.7322 1.4445 14.5935 1.7973 15.2928 1.8C15.9399 1.8027 16.3008 2.4156 16.1694 2.9322C15.8841 4.0581 15.2847 4.7106 14.6736 5.0589C14.585 5.10933 14.4937 5.1547 14.4 5.1948V7.2H14.9031C15.2321 7.20009 15.5497 7.32031 15.7963 7.53808C16.0429 7.75584 16.2015 8.05615 16.2423 8.3826L16.9947 14.4H17.1C17.3387 14.4 17.5676 14.4948 17.7364 14.6636C17.9052 14.8324 18 15.0613 18 15.3C18 15.5387 17.9052 15.7676 17.7364 15.9364C17.5676 16.1052 17.3387 16.2 17.1 16.2H10.8702C10.613 16.1995 10.3665 16.0972 10.1847 15.9153C10.0028 15.7335 9.90048 15.487 9.9 15.2298V13.5C9.9 13.2613 9.80518 13.0324 9.6364 12.8636C9.46761 12.6948 9.2387 12.6 9 12.6C8.7613 12.6 8.53239 12.6948 8.3636 12.8636C8.19482 13.0324 8.1 13.2613 8.1 13.5V15.2298C8.1 15.7653 7.6653 16.2 7.1298 16.2H0.9C0.661305 16.2 0.432387 16.1052 0.263604 15.9364C0.0948211 15.7676 0 15.5387 0 15.3C0 15.0613 0.0948211 14.8324 0.263604 14.6636C0.432387 14.4948 0.661305 14.4 0.9 14.4H1.0053L1.7577 8.3826C1.79849 8.05615 1.95709 7.75584 2.20369 7.53808C2.45029 7.32031 2.76791 7.20009 3.0969 7.2H3.6V5.1948C3.50631 5.1547 3.41496 5.10933 3.3264 5.0589C2.7153 4.7106 2.1159 4.0581 1.8306 2.9322C1.6992 2.4156 2.0601 1.8027 2.7072 1.8C3.3633 1.7973 4.1607 1.4868 4.4865 0.7686L4.545 0.6192C4.6656 0.2592 5.0058 0 5.4063 0H12.5937ZM14.5053 9H3.4947L2.8197 14.4H6.3V13.5C6.3 12.7839 6.58446 12.0972 7.09081 11.5908C7.59716 11.0845 8.28392 10.8 9 10.8C9.71608 10.8 10.4028 11.0845 10.9092 11.5908C11.4155 12.0972 11.7 12.7839 11.7 13.5V14.4H15.1803L14.5053 9ZM12.6 5.4H5.4V7.2H12.6V5.4ZM12.0186 1.8H5.9814C5.5125 2.6289 4.77 3.1122 4.041 3.366C4.17381 3.49087 4.3414 3.57247 4.5216 3.6H13.4802C13.6604 3.57247 13.828 3.49087 13.9608 3.366C13.2318 3.1122 12.4875 2.6289 12.0186 1.8Z" fill="white"/>
</svg>
