<svg width="39" height="39" viewBox="0 0 39 39" fill="none" xmlns="http://www.w3.org/2000/svg">
<g clip-path="url(#clip0_304_2253)">
<path d="M19.5 21.9375C18.2948 21.9375 17.1166 21.5801 16.1145 20.9105C15.1124 20.2409 14.3313 19.2892 13.8701 18.1757C13.4089 17.0622 13.2882 15.837 13.5233 14.6549C13.7585 13.4728 14.3388 12.387 15.1911 11.5348C16.0433 10.6826 17.1291 10.1022 18.3112 9.86709C19.4932 9.63196 20.7185 9.75264 21.832 10.2139C22.9455 10.6751 23.8972 11.4561 24.5668 12.4582C25.2364 13.4604 25.5938 14.6385 25.5938 15.8438C25.5918 17.4593 24.9492 19.0082 23.8068 20.1505C22.6644 21.2929 21.1156 21.9356 19.5 21.9375ZM19.5 12.1875C18.7769 12.1875 18.07 12.4019 17.4687 12.8037C16.8674 13.2054 16.3988 13.7765 16.1221 14.4446C15.8453 15.1127 15.7729 15.8478 15.914 16.5571C16.0551 17.2663 16.4033 17.9178 16.9146 18.4291C17.426 18.9404 18.0775 19.2887 18.7867 19.4297C19.4959 19.5708 20.2311 19.4984 20.8992 19.2217C21.5673 18.945 22.1383 18.4763 22.5401 17.8751C22.9418 17.2738 23.1563 16.5669 23.1563 15.8438C23.1553 14.8744 22.7698 13.9449 22.0843 13.2595C21.3988 12.574 20.4694 12.1885 19.5 12.1875Z" fill="#F56770"/>
<path d="M19.5 36.5625L9.21863 24.4372C9.07577 24.2551 8.93439 24.0719 8.79451 23.8875C7.03915 21.5736 6.09049 18.7481 6.09376 15.8438C6.09376 12.2882 7.5062 8.87826 10.0204 6.3641C12.5345 3.84994 15.9444 2.4375 19.5 2.4375C23.0556 2.4375 26.4655 3.84994 28.9797 6.3641C31.4938 8.87826 32.9063 12.2882 32.9063 15.8438C32.9091 18.7468 31.9609 21.5708 30.2067 23.8838L30.2055 23.8875C30.2055 23.8875 29.8399 24.3677 29.785 24.4323L19.5 36.5625ZM10.7409 22.4189C10.7409 22.4189 11.0248 22.7943 11.0894 22.8747L19.5 32.7941L27.9216 22.8613C27.9752 22.7943 28.2616 22.4153 28.2616 22.4153C29.6963 20.5252 30.4717 18.2167 30.4688 15.8438C30.4688 12.9347 29.3131 10.1447 27.2561 8.08767C25.199 6.03063 22.4091 4.875 19.5 4.875C16.5909 4.875 13.801 6.03063 11.7439 8.08767C9.68689 10.1447 8.53126 12.9347 8.53126 15.8438C8.52825 18.2182 9.30449 20.5281 10.7409 22.4189Z" fill="#F56770"/>
</g>
<defs>
<clipPath id="clip0_304_2253">
<rect width="39" height="39" fill="white"/>
</clipPath>
</defs>
</svg>
